<svg width="23" height="23" viewBox="0 0 23 23" fill="none" xmlns="http://www.w3.org/2000/svg">
<path d="M10.6347 16.2115C7.3779 16.2115 4.98081 13.8144 4.98081 10.5577C4.98081 7.30094 7.3779 4.90384 10.6347 4.90384C13.8914 4.90384 16.2885 7.30094 16.2885 10.5577C16.2885 13.8144 13.8914 16.2115 10.6347 16.2115ZM10.6347 18.0961C14.8172 18.0961 18.1731 14.7402 18.1731 10.5577C18.1731 6.37516 14.8172 3.01923 10.6347 3.01923C6.45213 3.01923 3.09619 6.37516 3.09619 10.5577C3.09619 14.7402 6.45213 18.0961 10.6347 18.0961ZM19.7767 18.3772L16.0075 14.608C15.8421 14.4261 15.6107 14.3269 15.3462 14.3269C14.8337 14.3269 14.4039 14.7567 14.4039 15.2692C14.4039 15.5337 14.5031 15.7652 14.6849 15.9305L18.4542 19.6997C18.6195 19.8816 18.8509 19.9808 19.1154 19.9808C19.6279 19.9808 20.0577 19.5509 20.0577 19.0385C20.0577 18.7739 19.9585 18.5425 19.7767 18.3772Z" fill="#F2F2F2"/>
</svg>
